<?xml version="1.0" encoding="utf-8"?>
<!-- Generator: Adobe Illustrator 23.1.1, SVG Export Plug-In . SVG Version: 6.00 Build 0)  -->
<svg version="1.1" id="Capa_1" xmlns="http://www.w3.org/2000/svg" xmlns:xlink="http://www.w3.org/1999/xlink" x="0px" y="0px"
	 viewBox="0 0 56.73 50.84" style="enable-background:new 0 0 56.73 50.84;" xml:space="preserve">
<style type="text/css">
	.st0{fill:#EF424B;}
</style>
<g>
	<g>
		<path class="st0" d="M50.25,50.84H6.47c-2.34,0-4.43-1.21-5.6-3.23c-1.17-2.02-1.17-4.44,0-6.46L22.77,3.23
			C23.93,1.21,26.03,0,28.36,0c0,0,0,0,0,0c2.34,0,4.43,1.21,5.6,3.23l21.89,37.91c1.17,2.02,1.17,4.44,0,6.46
			C54.68,49.63,52.59,50.84,50.25,50.84z M25.67,4.91L3.78,42.82c-0.56,0.97-0.56,2.14,0,3.11c0.56,0.97,1.57,1.56,2.69,1.56h43.78
			c1.12,0,2.13-0.58,2.69-1.56c0.56-0.97,0.56-2.14,0-3.11L31.06,4.91c-0.56-0.97-1.57-1.56-2.69-1.56
			C27.24,3.35,26.23,3.93,25.67,4.91L25.67,4.91z"/>
	</g>
	<g>
		<path class="st0" d="M28.37,13.72L28.37,13.72c2.42,0,4.31,2.12,4.02,4.53l-1.78,14.86c-0.14,1.14-1.1,2-2.25,2l0,0
			c-1.15,0-2.12-0.86-2.25-2l-1.75-14.87C24.07,15.84,25.95,13.72,28.37,13.72z"/>
		<path class="st0" d="M26.08,42.33c-0.62-0.62-0.94-1.39-0.94-2.29c0-0.9,0.31-1.67,0.94-2.29c0.62-0.62,1.39-0.94,2.29-0.94
			c0.9,0,1.67,0.31,2.29,0.94c0.62,0.62,0.94,1.39,0.94,2.29c0,0.9-0.31,1.67-0.94,2.29c-0.62,0.62-1.39,0.94-2.29,0.94
			C27.47,43.27,26.71,42.96,26.08,42.33z"/>
	</g>
</g>
</svg>
